<svg width="25" height="25" viewBox="0 0 25 25" fill="none" xmlns="http://www.w3.org/2000/svg">
<path d="M12.4902 0.946045C5.9853 0.946045 0.710938 6.22041 0.710938 12.7253C0.710938 19.2302 5.9853 24.5045 12.4902 24.5045C18.995 24.5045 24.2694 19.2302 24.2694 12.7253C24.2694 6.22041 18.995 0.946045 12.4902 0.946045ZM12.4902 22.5063C7.0896 22.5063 2.7092 18.1258 2.7092 12.7253C2.7092 7.32471 7.0896 2.94431 12.4902 2.94431C17.8907 2.94431 22.2711 7.32471 22.2711 12.7253C22.2711 18.1258 17.8907 22.5063 12.4902 22.5063ZM13.7443 12.1153L13.0765 11.9602V8.42901C14.0756 8.56574 14.6935 9.19151 14.7987 9.95926C14.8118 10.0644 14.9012 10.1407 15.0064 10.1407H16.187C16.3105 10.1407 16.4078 10.0329 16.3973 9.90931C16.2369 8.27126 14.8881 7.21954 13.087 7.03812V6.17834C13.087 6.06265 12.9924 5.968 12.8767 5.968H12.1378C12.0222 5.968 11.9275 6.06265 11.9275 6.17834V7.04601C10.066 7.22743 8.60933 8.25548 8.60933 10.1749C8.60933 11.9523 9.91872 12.8094 11.2938 13.1381L11.9433 13.3037V17.0557C10.7811 16.9006 10.1291 16.2801 9.99497 15.444C9.9792 15.3441 9.8898 15.2704 9.78726 15.2704H8.57253C8.44895 15.2704 8.35166 15.3756 8.36218 15.4992C8.4805 16.9453 9.57692 18.2757 11.917 18.4466V19.2722C11.917 19.3879 12.0116 19.4826 12.1273 19.4826H12.874C12.9897 19.4826 13.0844 19.3879 13.0844 19.2696L13.0791 18.4361C15.1379 18.2547 16.6103 17.153 16.6103 15.1758C16.6076 13.3511 15.4481 12.536 13.7443 12.1153ZM11.9406 11.6893C11.7934 11.6473 11.6698 11.6078 11.5463 11.5579C10.6576 11.2371 10.2448 10.7191 10.2448 10.0513C10.2448 9.09685 10.9678 8.55259 11.9406 8.42901V11.6893ZM13.0765 17.0636V13.5482C13.158 13.5719 13.2316 13.5903 13.3079 13.6061C14.5515 13.9847 14.9696 14.5106 14.9696 15.3178C14.9696 16.3458 14.1966 16.9637 13.0765 17.0636Z" fill="currentColor"/>
</svg>
