<svg width="20" height="21" viewBox="0 0 24 21" fill="none" xmlns="http://www.w3.org/2000/svg">
    <path
        d="M6.88354 12.3616H12.7732V13.9976H6.88354V12.3616ZM6.88354 15.6336H16.6996V17.2696H6.88354V15.6336Z"
        fill="currentColor" />
    <path
        d="M21.5953 0.909424H1.96321C1.44269 0.909857 0.943645 1.08236 0.575585 1.38908C0.207524 1.69579 0.000519737 2.11167 0 2.54543V18.9055C0.000519737 19.3393 0.207524 19.7551 0.575585 20.0619C0.943645 20.3686 1.44269 20.5411 1.96321 20.5415H21.5953C22.1158 20.5411 22.6149 20.3686 22.9829 20.0619C23.351 19.7551 23.558 19.3393 23.5585 18.9055V2.54543C23.558 2.11167 23.351 1.69579 22.9829 1.38908C22.6149 1.08236 22.1158 0.909857 21.5953 0.909424V0.909424ZM13.7425 2.54543V5.81744H9.81604V2.54543H13.7425ZM1.96321 18.9055V2.54543H7.85283V7.45345H15.7057V2.54543H21.5953L21.5963 18.9055H1.96321Z"
        fill="currentColor" />
</svg>