<svg width="20" height="20" viewBox="0 0 22 20" fill="none" xmlns="http://www.w3.org/2000/svg">
    <path fill-rule="evenodd" clip-rule="evenodd"
        d="M17.1235 3.95671C17.1235 3.33604 17.1243 2.88919 17.1542 2.54C17.1848 2.18335 17.2386 2.05252 17.2641 2.00997C17.2707 1.99899 17.2733 1.9971 17.2767 1.99459C17.2838 1.9894 17.3142 1.96888 17.3901 1.94546C17.5601 1.89299 17.8556 1.85414 18.3778 1.85414C18.9 1.85414 19.1955 1.89299 19.3655 1.94546C19.4414 1.96888 19.4713 1.98901 19.4784 1.9942C19.4818 1.99671 19.485 1.99899 19.4915 2.00997C19.5171 2.05252 19.5708 2.18335 19.6014 2.54C19.6313 2.88919 19.6321 3.33604 19.6321 3.95671V3.97096V3.9853V3.99974V4.01427V4.02889V4.04361V4.05841V4.07331V4.0883V4.10338V4.11855V4.13381V4.14917V4.16461V4.18014V4.19576V4.21146V4.22726V4.24314V4.25911V4.27517V4.29131V4.30754V4.32386V4.34026V4.35675V4.37332V4.38997V4.40671V4.42354V4.44044V4.45743V4.4745V4.49166V4.50889V4.52621V4.54361V4.56109V4.57865V4.59629V4.61401V4.6318V4.64968V4.66764V4.68567V4.70378V4.72197V4.74023V4.75858V4.77699V4.79549V4.81406V4.8327V4.85142V4.87022V4.88908V4.90803V4.92704V4.94613V4.96529V4.98452V5.00383V5.0232V5.04265V5.06217V5.08176V5.10142V5.12114V5.14094V5.16081V5.18074V5.20074V5.22081V5.24095V5.26116V5.28143V5.30177V5.32217V5.34264V5.36317V5.38377V5.40444V5.42517V5.44596V5.46681V5.48773V5.50871V5.52976V5.55086V5.57203V5.59325V5.61454V5.63589V5.6573V5.67877V5.7003V5.72188V5.74353V5.76523V5.78699V5.80881V5.83069V5.85262V5.87461V5.89666V5.91876V5.94091V5.96312V5.98539V6.00771V6.03008V6.05251V6.07499V6.09752V6.1201V6.14274V6.16543V6.18817V6.21096V6.2338V6.25669V6.27963V6.30262V6.32566V6.34875V6.37188V6.39507V6.4183V6.44158V6.4649V6.48827V6.51169V6.53515V6.55866V6.58222V6.60581V6.62946V6.65314V6.67687V6.70065V6.72446V6.74832V6.77222V6.79616V6.82014V6.84417V6.86823V6.89234V6.91648V6.94066V6.96489V6.98915V7.01345V7.03778V7.06216V7.08657V7.11102V7.13551V7.16003V7.18459V7.20918V7.23381V7.25847V7.28316V7.30789V7.33266V7.35746V7.38229V7.40715V7.43204V7.45697V7.48193V7.50692V7.53193V7.55698V7.58206V7.60717V7.63231V7.65748V7.68267V7.70789V7.73314V7.75842V7.78372V7.80906V7.83441V7.8598V7.8852V7.91064V7.9361V7.96158V7.98708V8.01262V8.03817V8.06374V8.08934V8.11496V8.14061V8.16627V8.19195V8.21766V8.24339V8.26913V8.2949V8.32068V8.34648V8.3723V8.39814V8.424V8.44987V8.47577V8.50167V8.5276V8.55354V8.57949V8.60546V8.63145V8.65745V8.68346V8.70949V8.73553V8.76158V8.78765V8.81373V8.83982V8.86592V8.89203V8.91815V8.94429V8.97043V8.99658V9.02275V9.04892V9.0751V9.10128V9.12748V9.15368V9.17989V9.20611V9.23233V9.25856V9.28479V9.31103V9.33728V9.36352V9.38978V9.41603V9.44229V9.46855V9.49482V9.52109V9.54736V9.57363V9.5999V9.62617V9.65244V9.67871V9.70499V9.73126V9.75753V9.7838V9.81007V9.83633V9.86259V9.88885V9.91511V9.94136V9.96761V9.99385V10.0201V10.0463V10.0726V10.0988V10.125V10.1512V10.1774V10.2036V10.2298V10.256V10.2821V10.3083V10.3345V10.3606V10.3867V10.4129V10.439V10.4651V10.4912V10.5172V10.5433V10.5694V10.5954V10.6214V10.6474V10.6734V10.6994V10.7254V10.7513V10.7773V10.8032V10.8291V10.855V10.8809V10.9067V10.9326V10.9584V10.9842V11.01V11.0358V11.0615V11.0872V11.1129V11.1386V11.1643V11.1899V11.2155V11.2411V11.2667V11.2923V11.3178V11.3433V11.3688V11.3942V11.4197V11.4451V11.4705V11.4958V11.5212V11.5465V11.5717V11.597V11.6222V11.6474V11.6726V11.6977V11.7228V11.7479V11.7729V11.798V11.823V11.8479V11.8728V11.8977V11.9226V11.9474V11.9722V11.997V12.0217V12.0464V12.0711V12.0957V12.1203V12.1449V12.1694V12.1939V12.2183V12.2427V12.2671V12.2914V12.3157V12.34V12.3642V12.3884V12.4125V12.4367V12.4607V12.4847V12.5087V12.5327V12.5566V12.5804V12.6042V12.628V12.6517V12.6754V12.6991V12.7227V12.7462V12.7697V12.7932V12.8166V12.84V12.8633V12.8866V12.9098V12.933V12.9561V12.9792V13.0023V13.0253V13.0482V13.0711V13.0939V13.1167V13.1395V13.1621V13.1848V13.2074V13.2299V13.2524V13.2748V13.2972V13.3195V13.3418V13.364V13.3861V13.4082V13.4303V13.4523V13.4742V13.4961V13.5179V13.5397V13.5614V13.583V13.6046V13.6261V13.6476V13.669V13.6903V13.7116V13.7329V13.754V13.7751V13.7962V13.8172V13.8381V13.8589V13.8797V13.9004V13.9211V13.9417V13.9622V13.9827V14.0031V14.0235V14.0437V14.0639V14.0841V14.1041V14.1241V14.1441V14.1639V14.1837V14.2035V14.2231V14.2427V14.2622V14.2817V14.3011V14.3204V14.3396V14.3588V14.3778V14.3969V14.4158V14.4347V14.4535V14.4722V14.4908V14.5094V14.5279V14.5463V14.5646V14.5829V14.6011V14.6192V14.6372V14.6552V14.6731V14.6909V14.7086V14.7262V14.7438V14.7613V14.7787V14.796V14.8132V14.8304V14.8475V14.8644V14.8813V14.8982V14.9149V14.9316V14.9481V14.9646V14.981V14.9973V15.0136V15.0297V15.0458V15.0617V15.0776V15.0934V15.1091V15.1247V15.1403V15.1557V15.1711V15.1863V15.2015V15.2166V15.2316V15.2465V15.2613V15.276V15.2906V15.3051V15.3196V15.3339V15.3482C19.6321 16.0813 19.5905 16.5779 19.5219 16.9148C19.453 17.2533 19.3728 17.3488 19.3592 17.3633C19.3543 17.3685 19.3498 17.3726 19.3356 17.3793C19.3171 17.388 19.2766 17.4032 19.1975 17.4168C19.0169 17.4479 18.7799 17.4507 18.3778 17.4507C17.9695 17.4507 17.7295 17.4479 17.5475 17.4167C17.4679 17.4031 17.4278 17.3879 17.4103 17.3796C17.3972 17.3734 17.394 17.3702 17.3902 17.3661C17.3783 17.3533 17.299 17.259 17.2312 16.9186C17.1638 16.5804 17.1235 16.0826 17.1235 15.3482V3.95671ZM18.3778 0C17.3239 0 16.2409 0.111402 15.6742 1.05603C15.427 1.46792 15.3445 1.94302 15.3069 2.38166C15.2694 2.81913 15.2694 3.34478 15.2694 3.9225V3.95671V15.3482C15.2694 16.1286 15.3104 16.7669 15.4128 17.2808C15.5147 17.7925 15.6936 18.2662 16.0356 18.6321C16.3947 19.0164 16.8328 19.1754 17.2344 19.2442C17.5899 19.3051 17.9867 19.305 18.3338 19.3049L18.3778 19.3049L18.4211 19.3049C18.7631 19.305 19.1572 19.3051 19.5119 19.2441C19.9122 19.1752 20.349 19.0165 20.7085 18.6349C21.0518 18.2707 21.2342 17.7982 21.3388 17.2846C21.4436 16.7694 21.4862 16.1299 21.4862 15.3482V15.3339V15.3196V15.3051V15.2906V15.276V15.2613V15.2465V15.2316V15.2166V15.2015V15.1863V15.1711V15.1557V15.1403V15.1247V15.1091V15.0934V15.0776V15.0617V15.0458V15.0297V15.0136V14.9973V14.981V14.9646V14.9481V14.9316V14.9149V14.8982V14.8813V14.8644V14.8475V14.8304V14.8132V14.796V14.7787V14.7613V14.7438V14.7262V14.7086V14.6909V14.6731V14.6552V14.6372V14.6192V14.6011V14.5829V14.5646V14.5463V14.5279V14.5094V14.4908V14.4722V14.4535V14.4347V14.4158V14.3969V14.3778V14.3588V14.3396V14.3204V14.3011V14.2817V14.2622V14.2427V14.2231V14.2035V14.1837V14.1639V14.1441V14.1241V14.1041V14.0841V14.0639V14.0437V14.0235V14.0031V13.9827V13.9622V13.9417V13.9211V13.9004V13.8797V13.8589V13.8381V13.8172V13.7962V13.7751V13.754V13.7329V13.7116V13.6903V13.669V13.6476V13.6261V13.6046V13.583V13.5614V13.5397V13.5179V13.4961V13.4742V13.4523V13.4303V13.4082V13.3861V13.364V13.3418V13.3195V13.2972V13.2748V13.2524V13.2299V13.2074V13.1848V13.1621V13.1395V13.1167V13.0939V13.0711V13.0482V13.0253V13.0023V12.9792V12.9561V12.933V12.9098V12.8866V12.8633V12.84V12.8166V12.7932V12.7697V12.7462V12.7227V12.6991V12.6754V12.6517V12.628V12.6042V12.5804V12.5566V12.5327V12.5087V12.4847V12.4607V12.4367V12.4125V12.3884V12.3642V12.34V12.3157V12.2914V12.2671V12.2427V12.2183V12.1939V12.1694V12.1449V12.1203V12.0957V12.0711V12.0464V12.0217V11.997V11.9722V11.9474V11.9226V11.8977V11.8728V11.8479V11.823V11.798V11.7729V11.7479V11.7228V11.6977V11.6726V11.6474V11.6222V11.597V11.5717V11.5465V11.5212V11.4958V11.4705V11.4451V11.4197V11.3942V11.3688V11.3433V11.3178V11.2923V11.2667V11.2411V11.2155V11.1899V11.1643V11.1386V11.1129V11.0872V11.0615V11.0358V11.01V10.9842V10.9584V10.9326V10.9067V10.8809V10.855V10.8291V10.8032V10.7773V10.7513V10.7254V10.6994V10.6734V10.6474V10.6214V10.5954V10.5694V10.5433V10.5172V10.4912V10.4651V10.439V10.4129V10.3867V10.3606V10.3345V10.3083V10.2821V10.256V10.2298V10.2036V10.1774V10.1512V10.125V10.0988V10.0726V10.0463V10.0201V9.99385V9.96761V9.94136V9.91511V9.88885V9.86259V9.83633V9.81007V9.7838V9.75753V9.73126V9.70499V9.67871V9.65244V9.62617V9.5999V9.57363V9.54736V9.52109V9.49482V9.46855V9.44229V9.41603V9.38978V9.36352V9.33728V9.31103V9.28479V9.25856V9.23233V9.20611V9.17989V9.15368V9.12748V9.10128V9.0751V9.04892V9.02275V8.99658V8.97043V8.94429V8.91815V8.89203V8.86592V8.83982V8.81373V8.78765V8.76158V8.73553V8.70949V8.68346V8.65745V8.63145V8.60546V8.57949V8.55354V8.5276V8.50167V8.47577V8.44987V8.424V8.39814V8.3723V8.34648V8.32068V8.2949V8.26913V8.24339V8.21766V8.19195V8.16627V8.14061V8.11496V8.08934V8.06374V8.03817V8.01262V7.98708V7.96158V7.9361V7.91064V7.8852V7.8598V7.83441V7.80906V7.78372V7.75842V7.73314V7.70789V7.68267V7.65748V7.63231V7.60717V7.58206V7.55698V7.53193V7.50692V7.48193V7.45697V7.43204V7.40715V7.38229V7.35746V7.33266V7.30789V7.28316V7.25847V7.23381V7.20918V7.18459V7.16003V7.13551V7.11102V7.08657V7.06216V7.03778V7.01345V6.98915V6.96489V6.94066V6.91648V6.89234V6.86823V6.84417V6.82014V6.79616V6.77222V6.74832V6.72446V6.70065V6.67687V6.65314V6.62946V6.60581V6.58222V6.55866V6.53515V6.51169V6.48827V6.4649V6.44158V6.4183V6.39507V6.37188V6.34875V6.32566V6.30262V6.27963V6.25669V6.2338V6.21096V6.18817V6.16543V6.14274V6.1201V6.09752V6.07499V6.05251V6.03008V6.00771V5.98539V5.96312V5.94091V5.91876V5.89666V5.87461V5.85262V5.83069V5.80881V5.78699V5.76523V5.74353V5.72188V5.7003V5.67877V5.6573V5.63589V5.61454V5.59325V5.57203V5.55086V5.52976V5.50871V5.48773V5.46681V5.44596V5.42517V5.40444V5.38377V5.36317V5.34264V5.32217V5.30177V5.28143V5.26116V5.24095V5.22081V5.20074V5.18074V5.16081V5.14094V5.12114V5.10142V5.08176V5.06217V5.04265V5.0232V5.00383V4.98452V4.96529V4.94613V4.92704V4.90803V4.88908V4.87022V4.85142V4.8327V4.81406V4.79549V4.77699V4.75858V4.74023V4.72197V4.70378V4.68567V4.66764V4.64968V4.6318V4.61401V4.59629V4.57865V4.56109V4.54361V4.52621V4.50889V4.49166V4.4745V4.45743V4.44044V4.42354V4.40671V4.38997V4.37332V4.35675V4.34026V4.32386V4.30754V4.29131V4.27517V4.25911V4.24314V4.22726V4.21146V4.19576V4.18014V4.16461V4.14917V4.13381V4.11855V4.10338V4.0883V4.07331V4.05841V4.04361V4.02889V4.01427V3.99974V3.9853V3.97096V3.95671L21.4862 3.9225C21.4862 3.34478 21.4863 2.81912 21.4488 2.38166C21.4112 1.94302 21.3286 1.46792 21.0815 1.05603C20.5147 0.111402 19.4317 0 18.3778 0ZM9.52046 6.92572C9.49319 7.1716 9.49209 7.45789 9.49209 7.83466L9.4921 11.8338L9.4921 15.8329C9.4921 15.8418 9.49197 15.8507 9.49172 15.8596C9.46469 16.7971 9.63533 17.114 9.73673 17.2226C9.82437 17.3165 10.0446 17.4507 10.7428 17.4507C11.4254 17.4507 11.6524 17.3181 11.7458 17.2191C11.8495 17.1091 12.0238 16.7917 11.994 15.8626C11.9937 15.8527 11.9935 15.8428 11.9935 15.8329V11.8338L11.9935 7.83466C11.9935 7.45789 11.9924 7.1716 11.9652 6.92572C11.9383 6.6834 11.8927 6.55941 11.8531 6.49327L11.8518 6.49103C11.8262 6.4477 11.6901 6.21683 10.7428 6.21683C9.79557 6.21683 9.65942 6.4477 9.63387 6.49103L9.63254 6.49327C9.59292 6.55942 9.54734 6.6834 9.52046 6.92572ZM8.04194 5.54047C8.56434 4.66838 9.53008 4.36269 10.7428 4.36269C11.9555 4.36269 12.9213 4.66838 13.4437 5.54047C13.6763 5.92877 13.7668 6.35013 13.808 6.7213C13.8477 7.07954 13.8477 7.46411 13.8477 7.80771L13.8477 7.83466L13.8477 11.8338V15.8185C13.88 16.8828 13.7166 17.8319 13.0946 18.4913C12.4593 19.1649 11.5654 19.3049 10.7428 19.3049C9.9122 19.3049 9.01476 19.1664 8.38129 18.4878C7.76426 17.8267 7.60906 16.8765 7.63796 15.8199L7.63795 11.8338L7.63795 7.83466L7.63795 7.8077C7.63792 7.46411 7.63789 7.07953 7.67763 6.7213C7.7188 6.35013 7.80934 5.92877 8.04194 5.54047ZM1.88368 12.4005C1.85509 12.6882 1.85414 13.0355 1.85414 13.5001V16.5174C1.85414 17.0415 1.98085 17.1849 2.04227 17.2369C2.14219 17.3214 2.41262 17.4507 3.10842 17.4507C3.78867 17.4507 4.06324 17.3228 4.16859 17.2345C4.23492 17.1788 4.36269 17.0324 4.36269 16.5174V16.5097V16.5019V16.4942V16.4865V16.4788V16.4711V16.4635V16.4558V16.4482V16.4406V16.433V16.4254V16.4178V16.4102V16.4027V16.3952V16.3877V16.3802V16.3727V16.3652V16.3578V16.3503V16.3429V16.3355V16.3281V16.3207V16.3134V16.306V16.2987V16.2914V16.2841V16.2768V16.2695V16.2622V16.255V16.2478V16.2405V16.2333V16.2261V16.219V16.2118V16.2046V16.1975V16.1904V16.1833V16.1762V16.1691V16.162V16.155V16.1479V16.1409V16.1339V16.1269V16.1199V16.1129V16.106V16.099V16.0921V16.0852V16.0782V16.0713V16.0645V16.0576V16.0507V16.0439V16.037V16.0302V16.0234V16.0166V16.0098V16.0031V15.9963V15.9896V15.9828V15.9761V15.9694V15.9627V15.956V15.9493V15.9427V15.936V15.9294V15.9228V15.9161V15.9095V15.9029V15.8964V15.8898V15.8832V15.8767V15.8702V15.8636V15.8571V15.8506V15.8441V15.8377V15.8312V15.8247V15.8183V15.8119V15.8054V15.799V15.7926V15.7862V15.7798V15.7735V15.7671V15.7608V15.7544V15.7481V15.7418V15.7355V15.7292V15.7229V15.7166V15.7103V15.7041V15.6978V15.6916V15.6854V15.6792V15.673V15.6668V15.6606V15.6544V15.6482V15.6421V15.6359V15.6298V15.6236V15.6175V15.6114V15.6053V15.5992V15.5931V15.5871V15.581V15.5749V15.5689V15.5628V15.5568V15.5508V15.5448V15.5388V15.5328V15.5268V15.5208V15.5148V15.5089V15.5029V15.497V15.4911V15.4851V15.4792V15.4733V15.4674V15.4615V15.4556V15.4497V15.4439V15.438V15.4321V15.4263V15.4205V15.4146V15.4088V15.403V15.3972V15.3914V15.3856V15.3798V15.374V15.3682V15.3625V15.3567V15.3509V15.3452V15.3395V15.3337V15.328V15.3223V15.3166V15.3109V15.3052V15.2995V15.2938V15.2881V15.2825V15.2768V15.2711V15.2655V15.2598V15.2542V15.2486V15.2429V15.2373V15.2317V15.2261V15.2205V15.2149V15.2093V15.2037V15.1981V15.1926V15.187V15.1814V15.1759V15.1703V15.1648V15.1593V15.1537V15.1482V15.1427V15.1371V15.1316V15.1261V15.1206V15.1151V15.1096V15.1041V15.0986V15.0932V15.0877V15.0822V15.0768V15.0713V15.0658V15.0604V15.0549V15.0495V15.0441V15.0386V15.0332V15.0278V15.0223V15.0169V15.0115V15.0061V15.0007V14.9953V14.9899V14.9845V14.9791V14.9737V14.9683V14.963V14.9576V14.9522V14.9468V14.9415V14.9361V14.9308V14.9254V14.9201V14.9147V14.9094V14.904V14.8987V14.8933V14.888V14.8827V14.8773V14.872V14.8667V14.8614V14.856V14.8507V14.8454V14.8401V14.8348V14.8295V14.8242V14.8189V14.8136V14.8083V14.803V14.7977V14.7924V14.7871V14.7818V14.7765V14.7713V14.766V14.7607V14.7554V14.7501V14.7449V14.7396V14.7343V14.729V14.7238V14.7185V14.7132V14.708V14.7027V14.6974V14.6922V14.6869V14.6817V14.6764V14.6711V14.6659V14.6606V14.6554V14.6501V14.6449V14.6396V14.6343V14.6291V14.6238V14.6186V14.6133V14.6081V14.6028V14.5976V14.5923V14.5871V14.5818V14.5765V14.5713V14.566V14.5608V14.5555V14.5503V14.545V14.5398V14.5345V14.5293V14.524V14.5187V14.5135V14.5082V14.503V14.4977V14.4924V14.4872V14.4819V14.4767V14.4714V14.4661V14.4609V14.4556V14.4503V14.445V14.4398V14.4345V14.4292V14.4239V14.4187V14.4134V14.4081V14.4028V14.3975V14.3922V14.387V14.3817V14.3764V14.3711V14.3658V14.3605V14.3552V14.3499V14.3446V14.3392V14.3339V14.3286V14.3233V14.318V14.3127V14.3073V14.302V14.2967V14.2914V14.286V14.2807V14.2753V14.27V14.2647V14.2593V14.2539V14.2486V14.2432V14.2379V14.2325V14.2271V14.2218V14.2164V14.211V14.2056V14.2002V14.1948V14.1894V14.184V14.1786V14.1732V14.1678V14.1624V14.157V14.1516V14.1461V14.1407V14.1353V14.1298V14.1244V14.119V14.1135V14.108V14.1026V14.0971V14.0916V14.0862V14.0807V14.0752V14.0697V14.0642V14.0587V14.0532V14.0477V14.0422V14.0367V14.0311V14.0256V14.0201V14.0145V14.009V14.0034V13.9979V13.9923V13.9868V13.9812V13.9756V13.97V13.9644V13.9588V13.9532V13.9476V13.942V13.9364V13.9307V13.9251V13.9195V13.9138V13.9082V13.9025V13.8969V13.8912V13.8855V13.8798V13.8741V13.8684V13.8627V13.857V13.8513V13.8456V13.8398V13.8341V13.8284V13.8226V13.8168V13.8111V13.8053V13.7995V13.7937V13.7879V13.7821V13.7763V13.7705V13.7647V13.7588V13.753V13.7472V13.7413V13.7354V13.7296V13.7237V13.7178V13.7119V13.706V13.7001V13.6942V13.6882V13.6823V13.6763V13.6704V13.6644V13.6585V13.6525V13.6465V13.6405V13.6345V13.6285V13.6225V13.6164V13.6104V13.6043V13.5983V13.5922V13.5861V13.58V13.574V13.5679V13.5617V13.5556V13.5495V13.5433V13.5372V13.531V13.5249V13.5187V13.5166L4.35514 13.296C4.34308 12.9369 4.33366 12.6562 4.30687 12.4085C4.27471 12.1112 4.22627 11.9725 4.18773 11.905L4.187 11.9034C4.17717 11.8814 4.08275 11.6702 3.10842 11.6702C2.12982 11.6702 2.01586 11.8838 2.00018 11.9132L1.99898 11.9154C1.96138 11.9793 1.91222 12.1133 1.88368 12.4005ZM0.400492 10.9759C0.935203 10.0661 1.93616 9.81604 3.10842 9.81604C4.28281 9.81604 5.27422 10.0676 5.79826 10.9863C6.02435 11.3826 6.10823 11.8205 6.15026 12.2091C6.18518 12.532 6.19725 12.8975 6.20911 13.2567C6.21144 13.3272 6.21376 13.3974 6.21624 13.4671L6.21656 13.4776L6.21683 13.5001V13.5063V13.5125V13.5187V13.5249V13.531V13.5372V13.5433V13.5495V13.5556V13.5617V13.5679V13.574V13.58V13.5861V13.5922V13.5983V13.6043V13.6104V13.6164V13.6225V13.6285V13.6345V13.6405V13.6465V13.6525V13.6585V13.6644V13.6704V13.6763V13.6823V13.6882V13.6942V13.7001V13.706V13.7119V13.7178V13.7237V13.7296V13.7354V13.7413V13.7472V13.753V13.7588V13.7647V13.7705V13.7763V13.7821V13.7879V13.7937V13.7995V13.8053V13.8111V13.8168V13.8226V13.8284V13.8341V13.8398V13.8456V13.8513V13.857V13.8627V13.8684V13.8741V13.8798V13.8855V13.8912V13.8969V13.9025V13.9082V13.9138V13.9195V13.9251V13.9307V13.9364V13.942V13.9476V13.9532V13.9588V13.9644V13.97V13.9756V13.9812V13.9868V13.9923V13.9979V14.0034V14.009V14.0145V14.0201V14.0256V14.0311V14.0367V14.0422V14.0477V14.0532V14.0587V14.0642V14.0697V14.0752V14.0807V14.0862V14.0916V14.0971V14.1026V14.108V14.1135V14.119V14.1244V14.1298V14.1353V14.1407V14.1461V14.1516V14.157V14.1624V14.1678V14.1732V14.1786V14.184V14.1894V14.1948V14.2002V14.2056V14.211V14.2164V14.2218V14.2271V14.2325V14.2379V14.2432V14.2486V14.2539V14.2593V14.2647V14.27V14.2753V14.2807V14.286V14.2914V14.2967V14.302V14.3073V14.3127V14.318V14.3233V14.3286V14.3339V14.3392V14.3446V14.3499V14.3552V14.3605V14.3658V14.3711V14.3764V14.3817V14.387V14.3922V14.3975V14.4028V14.4081V14.4134V14.4187V14.4239V14.4292V14.4345V14.4398V14.445V14.4503V14.4556V14.4609V14.4661V14.4714V14.4767V14.4819V14.4872V14.4924V14.4977V14.503V14.5082V14.5135V14.5187V14.524V14.5293V14.5345V14.5398V14.545V14.5503V14.5555V14.5608V14.566V14.5713V14.5765V14.5818V14.5871V14.5923V14.5976V14.6028V14.6081V14.6133V14.6186V14.6238V14.6291V14.6343V14.6396V14.6449V14.6501V14.6554V14.6606V14.6659V14.6711V14.6764V14.6817V14.6869V14.6922V14.6974V14.7027V14.708V14.7132V14.7185V14.7238V14.729V14.7343V14.7396V14.7449V14.7501V14.7554V14.7607V14.766V14.7713V14.7765V14.7818V14.7871V14.7924V14.7977V14.803V14.8083V14.8136V14.8189V14.8242V14.8295V14.8348V14.8401V14.8454V14.8507V14.856V14.8614V14.8667V14.872V14.8773V14.8827V14.888V14.8933V14.8987V14.904V14.9094V14.9147V14.9201V14.9254V14.9308V14.9361V14.9415V14.9468V14.9522V14.9576V14.963V14.9683V14.9737V14.9791V14.9845V14.9899V14.9953V15.0007V15.0061V15.0115V15.0169V15.0223V15.0278V15.0332V15.0386V15.0441V15.0495V15.0549V15.0604V15.0658V15.0713V15.0768V15.0822V15.0877V15.0932V15.0986V15.1041V15.1096V15.1151V15.1206V15.1261V15.1316V15.1371V15.1427V15.1482V15.1537V15.1593V15.1648V15.1703V15.1759V15.1814V15.187V15.1926V15.1981V15.2037V15.2093V15.2149V15.2205V15.2261V15.2317V15.2373V15.2429V15.2486V15.2542V15.2598V15.2655V15.2711V15.2768V15.2825V15.2881V15.2938V15.2995V15.3052V15.3109V15.3166V15.3223V15.328V15.3337V15.3395V15.3452V15.3509V15.3567V15.3625V15.3682V15.374V15.3798V15.3856V15.3914V15.3972V15.403V15.4088V15.4146V15.4205V15.4263V15.4321V15.438V15.4439V15.4497V15.4556V15.4615V15.4674V15.4733V15.4792V15.4851V15.4911V15.497V15.5029V15.5089V15.5148V15.5208V15.5268V15.5328V15.5388V15.5448V15.5508V15.5568V15.5628V15.5689V15.5749V15.581V15.5871V15.5931V15.5992V15.6053V15.6114V15.6175V15.6236V15.6298V15.6359V15.6421V15.6482V15.6544V15.6606V15.6668V15.673V15.6792V15.6854V15.6916V15.6978V15.7041V15.7103V15.7166V15.7229V15.7292V15.7355V15.7418V15.7481V15.7544V15.7608V15.7671V15.7735V15.7798V15.7862V15.7926V15.799V15.8054V15.8119V15.8183V15.8247V15.8312V15.8377V15.8441V15.8506V15.8571V15.8636V15.8702V15.8767V15.8832V15.8898V15.8964V15.9029V15.9095V15.9161V15.9228V15.9294V15.936V15.9427V15.9493V15.956V15.9627V15.9694V15.9761V15.9828V15.9896V15.9963V16.0031V16.0098V16.0166V16.0234V16.0302V16.037V16.0439V16.0507V16.0576V16.0645V16.0713V16.0782V16.0852V16.0921V16.099V16.106V16.1129V16.1199V16.1269V16.1339V16.1409V16.1479V16.155V16.162V16.1691V16.1762V16.1833V16.1904V16.1975V16.2046V16.2118V16.219V16.2261V16.2333V16.2405V16.2478V16.255V16.2622V16.2695V16.2768V16.2841V16.2914V16.2987V16.306V16.3134V16.3207V16.3281V16.3355V16.3429V16.3503V16.3578V16.3652V16.3727V16.3802V16.3877V16.3952V16.4027V16.4102V16.4178V16.4254V16.433V16.4406V16.4482V16.4558V16.4635V16.4711V16.4788V16.4865V16.4942V16.5019V16.5097V16.5174C6.21683 17.3279 6.00774 18.1117 5.36029 18.6549C4.75188 19.1653 3.93578 19.3049 3.10842 19.3049C2.27294 19.3049 1.4527 19.1668 0.844761 18.6525C0.198327 18.1056 9.2958e-07 17.3188 9.2958e-07 16.5174V13.5001V13.4702C-1.93542e-05 13.043 -4.00841e-05 12.6063 0.0386281 12.2171C0.0782528 11.8184 0.16543 11.3758 0.400492 10.9759Z"
        fill="currentColor" />
</svg>