<svg width="19" height="22" viewBox="0 0 19 22" fill="none" xmlns="http://www.w3.org/2000/svg">
    <path fill-rule="evenodd" clip-rule="evenodd"
        d="M18.6385 0.0012207V16.403H16.1073V20.1881H18.0057V21.4497H4.08416C3.16027 21.4497 2.27435 21.046 1.67826 20.3395C1.18595 19.7591 0.920166 19.0399 0.920166 18.2955V3.15542C0.920166 1.4143 2.33763 0.0012207 4.08416 0.0012207H18.6385ZM14.8417 16.403H4.22337C3.22355 16.403 2.36168 17.0717 2.21107 17.9675C2.19716 18.0684 2.18576 18.1694 2.18576 18.2703V18.2956C2.18576 18.7498 2.33763 19.1661 2.64138 19.5194C3.0084 19.9483 3.5273 20.1881 4.08416 20.1881H14.8417V18.9264H3.61589V17.6647H14.8417V16.403ZM17.3729 1.2629H4.08416C3.0451 1.2629 2.18576 2.10821 2.18576 3.15542V15.81C2.75528 15.3937 3.46275 15.1413 4.22337 15.1413H17.3729L17.3729 1.2629ZM14.2085 10.0946V11.3563H5.34937V10.0946H14.2085V10.0946ZM14.8413 3.78627V8.83297H4.71659V3.78626H14.8414L14.8413 3.78627ZM13.5757 5.04793H5.98217V7.5713H13.5757V5.04793Z"
        fill="currentColor" />
</svg>