<svg width="22" height="22" viewBox="0 0 22 22" fill="none" xmlns="http://www.w3.org/2000/svg">
<path d="M5.54904 17.767L6.62694 18.8449C6.65291 18.871 6.67103 18.9038 6.67924 18.9397C6.68746 18.9756 6.68544 19.013 6.67342 19.0478C6.66139 19.0826 6.63985 19.1133 6.61123 19.1365C6.58261 19.1596 6.54807 19.1743 6.51154 19.1788L2.57806 19.6428C2.45283 19.6576 2.3448 19.552 2.35953 19.4243L2.82359 15.4908C2.84324 15.3288 3.04212 15.26 3.15752 15.3754L4.23051 16.4484L7.51333 13.1681C7.58944 13.092 7.71466 13.092 7.79078 13.1681L8.83185 14.2067C8.90797 14.2828 8.90797 14.408 8.83185 14.4841L5.54904 17.767ZM14.2091 13.1681C14.2852 13.092 14.4104 13.092 14.4865 13.1681L17.7694 16.4484L18.8423 15.3754C18.8684 15.3495 18.9013 15.3314 18.9372 15.3231C18.9731 15.3149 19.0105 15.3169 19.0453 15.329C19.0801 15.341 19.1108 15.3625 19.134 15.3912C19.1571 15.4198 19.1718 15.4543 19.1763 15.4908L19.6403 19.4219C19.6551 19.5471 19.5495 19.6551 19.4218 19.6404L15.4883 19.1763C15.3263 19.1567 15.2575 18.9578 15.3729 18.8424L16.4508 17.7645L13.168 14.4866C13.1315 14.4497 13.111 14.3998 13.111 14.3479C13.111 14.2959 13.1315 14.2461 13.168 14.2091L14.2091 13.1681ZM19.1763 6.50914C19.1566 6.6712 18.9577 6.73995 18.8423 6.62455L17.7694 5.55156L14.4865 8.83191C14.4496 8.86847 14.3998 8.88897 14.3478 8.88897C14.2959 8.88897 14.246 8.86847 14.2091 8.83191L13.168 7.7933C13.1315 7.75638 13.111 7.70652 13.111 7.65457C13.111 7.60261 13.1315 7.55276 13.168 7.51584L16.4508 4.23303L15.3729 3.15513C15.347 3.12904 15.3288 3.09618 15.3206 3.0603C15.3124 3.02442 15.3144 2.98695 15.3265 2.95216C15.3385 2.91737 15.36 2.88665 15.3886 2.8635C15.4173 2.84035 15.4518 2.82569 15.4883 2.8212L19.4218 2.35714C19.547 2.3424 19.6551 2.44799 19.6403 2.57566L19.1763 6.50914ZM7.79078 8.83191C7.75386 8.86847 7.70401 8.88897 7.65205 8.88897C7.6001 8.88897 7.55024 8.86847 7.51333 8.83191L4.23051 5.55156L3.15752 6.62455C3.13143 6.65051 3.09857 6.66863 3.06269 6.67685C3.02681 6.68506 2.98935 6.68304 2.95456 6.67102C2.91977 6.659 2.88905 6.63745 2.8659 6.60884C2.84274 6.58022 2.82809 6.54568 2.82359 6.50914L2.35953 2.57812C2.3448 2.4529 2.45038 2.34486 2.57806 2.35959L6.51154 2.82365C6.67359 2.8433 6.74234 3.04218 6.62694 3.15758L5.54904 4.23303L8.83185 7.51339C8.90797 7.5895 8.90797 7.71472 8.83185 7.79084L7.79078 8.83191Z" fill="currentColor"/>
</svg>
