<svg width="12" height="21" viewBox="0 0 12 21" fill="none" xmlns="http://www.w3.org/2000/svg">
<path d="M11.5565 20.2921C11.8405 20.008 12 19.6227 12 19.2211C12 18.8194 11.8405 18.4341 11.5565 18.1501L4.05791 10.6515L11.5565 3.15294C11.8324 2.86724 11.9851 2.48458 11.9817 2.08739C11.9782 1.6902 11.8189 1.31025 11.538 1.02938C11.2571 0.748518 10.8772 0.589203 10.48 0.585751C10.0828 0.5823 9.70016 0.734989 9.41446 1.01093L0.844897 9.58049C0.560905 9.86457 0.401367 10.2498 0.401367 10.6515C0.401367 11.0532 0.560905 11.4384 0.844897 11.7225L9.41446 20.2921C9.69854 20.5761 10.0838 20.7356 10.4855 20.7356C10.8871 20.7356 11.2724 20.5761 11.5565 20.2921Z" fill="currentColor"/>
</svg>
