<svg width="19" height="19" viewBox="0 0 24 19" fill="none" xmlns="http://www.w3.org/2000/svg">
<path d="M22.7171 0H0.841374C0.375989 0 0 0.375989 0 0.841374V17.6689C0 18.1342 0.375989 18.5102 0.841374 18.5102H22.7171C23.1825 18.5102 23.5585 18.1342 23.5585 17.6689V0.841374C23.5585 0.375989 23.1825 0 22.7171 0ZM21.6654 2.91326V16.6171H1.89309V2.91326L1.16741 2.34796L2.20072 1.02017L3.32606 1.89572H20.235L21.3604 1.02017L22.3937 2.34796L21.6654 2.91326ZM20.235 1.89309L11.7792 8.46632L3.32343 1.89309L2.19809 1.01754L1.16478 2.34533L1.89046 2.91063L10.8721 9.89403C11.1304 10.0947 11.4482 10.2036 11.7753 10.2036C12.1024 10.2036 12.4202 10.0947 12.6785 9.89403L21.6654 2.91326L22.3911 2.34796L21.3577 1.02017L20.235 1.89309Z" fill="currentColor"/>
</svg>
