<!-- icon666.com - MILLIONS vector ICONS FREE -->
<svg id="Layer_1" width="24" height="24" viewBox="10 0 100 100" xmlns="http://www.w3.org/2000/svg">
    <g>
        <path
            d="m77.688 80.201h-55.376c-6.617 0-12-5.382-12-11.998v-36.404c0-6.617 5.383-12 12-12h55.376c6.617 0 12 5.383 12 12v36.404c0 6.616-5.383 11.998-12 11.998zm-55.376-56.402c-4.411 0-8 3.589-8 8v36.404c0 4.41 3.589 7.998 8 7.998h55.376c4.411 0 8-3.588 8-7.998v-36.404c0-4.411-3.589-8-8-8z"
            fill="currentColor"></path>
        <path
            d="m50 61.698c-2.755 0-5.51-.952-7.757-2.855l-31.224-26.451 2.586-3.053 31.224 26.451c2.996 2.539 7.346 2.538 10.342.001l31.225-26.452c.843-.714 2.104-.609 2.819.233s.61 2.105-.233 2.819l-31.226 26.452c-2.247 1.903-5.002 2.855-7.756 2.855z"
            fill="currentColor"></path>
    </g>
</svg>