<svg width="20" height="19" viewBox="0 0 24 19" fill="none" xmlns="http://www.w3.org/2000/svg">
    <path
        d="M22.7171 0.470459H0.841374C0.375989 0.470459 0 0.846448 0 1.31183V18.1393C0 18.6047 0.375989 18.9807 0.841374 18.9807H22.7171C23.1825 18.9807 23.5585 18.6047 23.5585 18.1393V1.31183C23.5585 0.846448 23.1825 0.470459 22.7171 0.470459ZM21.6654 3.38372V17.0876H1.89309V3.38372L1.16741 2.81842L2.20072 1.49062L3.32606 2.36618H20.235L21.3604 1.49062L22.3937 2.81842L21.6654 3.38372ZM20.235 2.36355L11.7792 8.93678L3.32343 2.36355L2.19809 1.488L1.16478 2.81579L1.89046 3.38109L10.8721 10.3645C11.1304 10.5652 11.4482 10.6741 11.7753 10.6741C12.1024 10.6741 12.4202 10.5652 12.6785 10.3645L21.6654 3.38372L22.3911 2.81842L21.3578 1.49062L20.235 2.36355Z"
        fill="currentColor" />
</svg>