<svg width="22" height="22" viewBox="0 0 22 22" fill="none" xmlns="http://www.w3.org/2000/svg">
<path d="M8.02895 4.34353C8.0093 4.18148 7.81042 4.11273 7.69502 4.22813L6.62203 5.30112L3.33921 2.02076C3.30229 1.98421 3.25244 1.9637 3.20049 1.9637C3.14853 1.9637 3.09868 1.98421 3.06176 2.02076L2.02069 3.05938C1.98413 3.0963 1.96362 3.14615 1.96362 3.19811C1.96362 3.25006 1.98413 3.29992 2.02069 3.33683L5.3035 6.61965L4.2256 7.69755C4.19963 7.72364 4.18151 7.7565 4.1733 7.79238C4.16508 7.82826 4.1671 7.86572 4.17912 7.90051C4.19115 7.9353 4.21269 7.96602 4.24131 7.98917C4.26992 8.01233 4.30446 8.02698 4.341 8.03148L8.27448 8.49554C8.3997 8.51027 8.50774 8.40469 8.49301 8.27701L8.02895 4.34353ZM8.27694 13.5069L4.341 13.971C4.17894 13.9906 4.11019 14.1895 4.2256 14.3049L5.3035 15.3828L2.02069 18.6607C1.98413 18.6976 1.96362 18.7475 1.96362 18.7994C1.96362 18.8514 1.98413 18.9013 2.02069 18.9382L3.06176 19.9768C3.13787 20.0529 3.2631 20.0529 3.33921 19.9768L6.62203 16.6964L7.69502 17.7694C7.72111 17.7954 7.75396 17.8135 7.78984 17.8217C7.82573 17.8299 7.86319 17.8279 7.89798 17.8159C7.93277 17.8039 7.96349 17.7823 7.98664 17.7537C8.0098 17.7251 8.02445 17.6906 8.02895 17.654L8.49301 13.723C8.50774 13.5978 8.40216 13.4922 8.27694 13.5069ZM13.7229 8.49308L17.6589 8.02902C17.8209 8.00938 17.8897 7.81049 17.7743 7.69509L16.6964 6.61965L19.9792 3.33929C20.0553 3.26317 20.0553 3.13795 19.9792 3.06183L18.9381 2.02322C18.9012 1.98666 18.8513 1.96615 18.7994 1.96615C18.7474 1.96615 18.6976 1.98666 18.6606 2.02322L15.3778 5.30112L14.3048 4.22813C14.2787 4.20216 14.2459 4.18404 14.21 4.17583C14.1741 4.16761 14.1367 4.16963 14.1019 4.18165C14.0671 4.19368 14.0364 4.21522 14.0132 4.24384C13.9901 4.27246 13.9754 4.307 13.9709 4.34353L13.5068 8.27456C13.4921 8.40224 13.5977 8.50782 13.7229 8.49308ZM16.6964 15.3804L17.7743 14.3025C17.8002 14.2764 17.8183 14.2435 17.8266 14.2076C17.8348 14.1717 17.8328 14.1343 17.8207 14.0995C17.8087 14.0647 17.7872 14.034 17.7585 14.0108C17.7299 13.9877 17.6954 13.973 17.6589 13.9685L13.7254 13.5045C13.6002 13.4897 13.4921 13.5953 13.5068 13.723L13.9709 17.6565C13.9906 17.8185 14.1894 17.8873 14.3048 17.7719L15.3778 16.6989L18.6606 19.9792C18.7368 20.0554 18.862 20.0554 18.9381 19.9792L19.9792 18.9406C20.0553 18.8645 20.0553 18.7393 19.9792 18.6632L16.6964 15.3804Z" fill="currentColor"/>
</svg>
