<svg width="20" height="21" viewBox="0 0 20 21" fill="none" xmlns="http://www.w3.org/2000/svg">
    <path fill-rule="evenodd" clip-rule="evenodd"
        d="M2.9235 2.38173C2.70411 2.38173 2.47318 2.47696 2.28791 2.68111C2.09992 2.88824 1.98085 3.18684 1.98085 3.51482V17.9359C1.98085 18.2639 2.09992 18.5625 2.28791 18.7696C2.47318 18.9738 2.70411 19.069 2.9235 19.069H13.2148V10.18V3.51482C13.2148 3.18685 13.0957 2.88824 12.9077 2.68111C12.7224 2.47696 12.4915 2.38173 12.2721 2.38173H2.9235ZM2.9235 20.9231H14.1418H16.3232C17.1476 20.9231 17.9382 20.5957 18.5212 20.0127C19.1041 19.4298 19.4316 18.6391 19.4316 17.8147V10.18C19.4316 9.66802 19.0165 9.25296 18.5045 9.25296H15.0689V3.51482C15.0689 2.75001 14.794 2.0006 14.2807 1.43502C13.7647 0.866463 13.0445 0.527588 12.2721 0.527588H2.9235C2.15113 0.527588 1.43091 0.866462 0.91491 1.43502C0.401617 2.0006 0.126709 2.75001 0.126709 3.51482V17.9359C0.126709 18.7007 0.401617 19.4501 0.91491 20.0157C1.43091 20.5843 2.15113 20.9231 2.9235 20.9231ZM15.0689 19.069V11.1071H17.5774V17.8147C17.5774 18.1474 17.4453 18.4664 17.2101 18.7016C16.9749 18.9369 16.6558 19.069 16.3232 19.069H15.0689ZM5.41646 5.98094C4.90446 5.98094 4.48939 6.39601 4.48939 6.90802C4.48939 7.42002 4.90446 7.83509 5.41646 7.83509H9.77915C10.2912 7.83509 10.7062 7.42002 10.7062 6.90802C10.7062 6.39601 10.2912 5.98094 9.77915 5.98094H5.41646ZM4.48939 10.18C4.48939 9.66802 4.90446 9.25296 5.41646 9.25296H9.77915C10.2912 9.25296 10.7062 9.66802 10.7062 10.18C10.7062 10.692 10.2912 11.1071 9.77915 11.1071H5.41646C4.90446 11.1071 4.48939 10.692 4.48939 10.18ZM5.41646 13.6156C4.90446 13.6156 4.48939 14.0307 4.48939 14.5427C4.48939 15.0547 4.90446 15.4698 5.41646 15.4698H8.68848C9.20049 15.4698 9.61555 15.0547 9.61555 14.5427C9.61555 14.0307 9.20049 13.6156 8.68848 13.6156H5.41646Z"
        fill="currentColor" />
</svg>