<svg id="Layer_1" data-name="Layer 1" xmlns="http://www.w3.org/2000/svg" xmlns:xlink="http://www.w3.org/1999/xlink" viewBox="0 0 482.8 130.67"><defs><style>.cls-1{fill:url(#linear-gradient);}.cls-2{fill:url(#linear-gradient-2);}.cls-3{fill:url(#linear-gradient-3);}.cls-4{fill:url(#linear-gradient-4);}.cls-5{fill:url(#linear-gradient-5);}.cls-6{fill:url(#linear-gradient-6);}.cls-7{fill:url(#linear-gradient-7);}.cls-8{fill:url(#linear-gradient-8);}.cls-9{fill:url(#linear-gradient-9);}.cls-10{fill:url(#linear-gradient-10);}.cls-11{fill:url(#linear-gradient-11);}.cls-12{fill:url(#linear-gradient-12);}.cls-13{fill:url(#linear-gradient-13);}.cls-14{fill:url(#linear-gradient-14);}.cls-15{fill:url(#linear-gradient-15);}</style><linearGradient id="linear-gradient" x1="430.83" y1="59.21" x2="421.52" y2="160.09" gradientUnits="userSpaceOnUse"><stop offset="0" stop-color="#00b6a2"/><stop offset="1" stop-color="#d2ffa9"/></linearGradient><linearGradient id="linear-gradient-2" x1="423.82" y1="58.57" x2="414.51" y2="159.45" xlink:href="#linear-gradient"/><linearGradient id="linear-gradient-3" x1="430.32" y1="59.17" x2="421.02" y2="160.05" xlink:href="#linear-gradient"/><linearGradient id="linear-gradient-4" x1="437.45" y1="59.82" x2="428.15" y2="160.7" xlink:href="#linear-gradient"/><linearGradient id="linear-gradient-5" x1="138.23" y1="32.23" x2="128.92" y2="133.11" xlink:href="#linear-gradient"/><linearGradient id="linear-gradient-6" x1="192.29" y1="37.21" x2="182.99" y2="138.09" xlink:href="#linear-gradient"/><linearGradient id="linear-gradient-7" x1="234.1" y1="41.07" x2="224.79" y2="141.95" xlink:href="#linear-gradient"/><linearGradient id="linear-gradient-8" x1="271.19" y1="44.49" x2="261.89" y2="145.37" xlink:href="#linear-gradient"/><linearGradient id="linear-gradient-9" x1="326.31" y1="49.57" x2="317" y2="150.45" xlink:href="#linear-gradient"/><linearGradient id="linear-gradient-10" x1="383.2" y1="54.82" x2="373.9" y2="155.7" xlink:href="#linear-gradient"/><linearGradient id="linear-gradient-11" x1="436.46" y1="59.73" x2="427.15" y2="160.61" xlink:href="#linear-gradient"/><linearGradient id="linear-gradient-12" x1="69.16" y1="25.85" x2="59.86" y2="126.74" xlink:href="#linear-gradient"/><linearGradient id="linear-gradient-13" x1="69.36" y1="25.87" x2="60.06" y2="126.75" xlink:href="#linear-gradient"/><linearGradient id="linear-gradient-14" x1="94.39" y1="28.18" x2="85.09" y2="129.06" xlink:href="#linear-gradient"/><linearGradient id="linear-gradient-15" x1="102.74" y1="28.95" x2="93.43" y2="129.83" xlink:href="#linear-gradient"/></defs><path class="cls-1" d="M446.49,22.82H420.83V34.24h25.66Zm-.4,11H421.22V23.21h24.87Z"/><path class="cls-2" d="M423.73,28.4A3.13,3.13,0,0,1,427,25.23a3,3,0,0,1,2.28.91l-.42.42a2.46,2.46,0,0,0-1.84-.74A2.58,2.58,0,1,0,427,31a2.42,2.42,0,0,0,1.84-.75l.42.42a3,3,0,0,1-2.29.92A3.13,3.13,0,0,1,423.73,28.4Z"/><path class="cls-3" d="M434.93,31.51l-1.42-2a4,4,0,0,1-.5,0h-1.67v2h-.66V25.29H433c1.58,0,2.54.8,2.54,2.14a1.94,1.94,0,0,1-1.42,2l1.52,2.14h-.72Zm0-4.09c0-1-.66-1.57-1.9-1.57h-1.65V29H433C434.24,29,434.9,28.4,434.9,27.42Z"/><path class="cls-4" d="M443.59,25.29v6.23H443v-5l-2.45,4.19h-.31l-2.45-4.16v5h-.63V25.3h.54l2.71,4.62,2.68-4.62h.54Z"/><path class="cls-5" d="M112,42.57h8V80.28q0,20.09,15.42,20.08t15.42-20.08V42.57h8V83q0,10.85-6.31,17.84t-17.08,7q-10.77,0-17.08-7T112,83Z"/><path class="cls-6" d="M171.27,107.82V42.57h35V50H179.4V68.27h26.14v7.44H179.4v24.67h26.92v7.44Z"/><path class="cls-7" d="M225.11,42.57v57.81h19.82v7.44H217V42.57Z"/><path class="cls-8" d="M250.84,107.82V42.57h35V50H259V68.27h26.14v7.44H259v24.67h26.92v7.44Z"/><path class="cls-9" d="M335.46,92h-29l-7.22,15.87h-8.48l30.23-66,30.23,66h-8.48Zm-3.27-7.22L320.94,59.12,309.69,84.73Z"/><path class="cls-10" d="M357.39,107.8V41.57h13.7q16.08,0,26.61,8.48t10.54,24.29q0,16.25-10.45,24.86t-27,8.61H357.39Zm8.25-58.68v51.12h2.9a51.5,51.5,0,0,0,12.12-1.32,31.3,31.3,0,0,0,9.88-4.22,19.69,19.69,0,0,0,6.94-8,27,27,0,0,0,2.5-12,27.22,27.22,0,0,0-2.5-12.12,19.26,19.26,0,0,0-7-8,32.79,32.79,0,0,0-9.88-4.17,51,51,0,0,0-12.08-1.32Z"/><path class="cls-11" d="M451.69,51.4l-6.3,3.78a11.18,11.18,0,0,0-10.16-6,11.71,11.71,0,0,0-7.31,2.52,7.83,7.83,0,0,0-3.28,6.47q0,5.72,8.82,9.07L438,69a31,31,0,0,1,11.63,7.31q4.06,4.37,4.07,11.76a18.75,18.75,0,0,1-5.84,14.15,20,20,0,0,1-14.4,5.58,18.7,18.7,0,0,1-13.1-5,20.25,20.25,0,0,1-6.47-12.72l8-1.68A11.1,11.1,0,0,0,425.34,97a12.12,12.12,0,0,0,8.77,3.44,10.84,10.84,0,0,0,8.36-3.65,12.5,12.5,0,0,0,3.32-8.69,9.34,9.34,0,0,0-2.9-7.26,26.87,26.87,0,0,0-8-4.74l-4.37-1.85a32.5,32.5,0,0,1-10.12-6.38,13,13,0,0,1-3.65-9.66,14.53,14.53,0,0,1,5.54-11.88,20.2,20.2,0,0,1,13.1-4.49Q446.32,41.81,451.69,51.4Z"/><path class="cls-12" d="M79.71,61.2a19.23,19.23,0,0,0-5.17-4.78,18.35,18.35,0,0,0-25.38,6.1,19.18,19.18,0,0,0-2.43,6.61A17.85,17.85,0,0,0,47,76.4a18.07,18.07,0,0,0,3.1,6.67,18.26,18.26,0,0,0,11.76,7.2A18.1,18.1,0,0,0,69.19,90a8.91,8.91,0,0,0,1.58-.51l2.85-1.32L63.47,79.05l6.65-7.38L80.88,81.4,82,78.71a16.63,16.63,0,0,0,1.26-5.32,18.36,18.36,0,0,0-.48-5.6A18,18,0,0,0,79.71,61.2Z"/><path class="cls-13" d="M80.06,96A33,33,0,0,1,76,98.12a29,29,0,0,1-4.45,1.47,27.28,27.28,0,0,1-11.21.4,28.94,28.94,0,0,1-10.15-3.81,29.26,29.26,0,0,1-8-7.31A28.16,28.16,0,0,1,37,67.5,28.66,28.66,0,0,1,48.12,49.34,28.16,28.16,0,0,1,69.49,44.2,28.86,28.86,0,0,1,79.64,48a29.25,29.25,0,0,1,8,7.31,28.24,28.24,0,0,1,5.18,21.2,29.11,29.11,0,0,1-3.7,10.09l-.88,1.47,5.89,5.07a36,36,0,1,0-6.9,7.1l-5.87-5Z"/><path class="cls-14" d="M82.27,103.51a10.78,10.78,0,0,1,10.29.7l-5.33-3.95Z"/><path class="cls-15" d="M94.14,93.16l5,4.46s-4.09-4.16-2-9.14Z"/></svg>