<svg id="Layer_1" data-name="Layer 1" xmlns="http://www.w3.org/2000/svg" xmlns:xlink="http://www.w3.org/1999/xlink" viewBox="0 0 135.34 130.67"><defs><style>.cls-1{fill:url(#linear-gradient);}.cls-2{fill:url(#linear-gradient-2);}.cls-3{fill:url(#linear-gradient-3);}.cls-4{fill:url(#linear-gradient-4);}</style><linearGradient id="linear-gradient" x1="68.68" y1="15.28" x2="70.63" y2="149.46" gradientUnits="userSpaceOnUse"><stop offset="0" stop-color="#00b6a2"/><stop offset="1" stop-color="#d2ffa9"/></linearGradient><linearGradient id="linear-gradient-2" x1="69.02" y1="15.27" x2="70.98" y2="149.45" xlink:href="#linear-gradient"/><linearGradient id="linear-gradient-3" x1="100.91" y1="14.81" x2="102.87" y2="148.99" xlink:href="#linear-gradient"/><linearGradient id="linear-gradient-4" x1="114.54" y1="14.61" x2="116.5" y2="148.79" xlink:href="#linear-gradient"/></defs><path class="cls-1" d="M91.1,51.63a28.18,28.18,0,0,0-7.56-7,27,27,0,0,0-30.16,1.27,26.87,26.87,0,0,0-7,7.65,28.13,28.13,0,0,0-3.55,9.66,26.9,26.9,0,0,0,4.9,20.38A26.68,26.68,0,0,0,65,94.13a26.43,26.43,0,0,0,10.75-.4A12.62,12.62,0,0,0,78,93l4.16-1.93L67.35,77.73l9.73-10.79L92.81,81.16l1.66-3.93a24.21,24.21,0,0,0,1.85-7.78,26.81,26.81,0,0,0-.71-8.19A26.22,26.22,0,0,0,91.1,51.63Z"/><path class="cls-2" d="M91.61,102.52a48.48,48.48,0,0,1-6,3.09,43.81,43.81,0,0,1-6.5,2.15,39.89,39.89,0,0,1-16.39.58,42.22,42.22,0,0,1-14.84-5.57A42.91,42.91,0,0,1,36.17,92.08a41.19,41.19,0,0,1-7.52-31.24A42,42,0,0,1,44.91,34.29a41.23,41.23,0,0,1,31.25-7.52A42.3,42.3,0,0,1,91,32.35,42.73,42.73,0,0,1,102.71,43a41.29,41.29,0,0,1,7.57,31,42.6,42.6,0,0,1-5.41,14.75l-1.29,2.15,8.61,7.41a52.57,52.57,0,1,0-10.08,10.38l-8.59-7.35Z"/><path class="cls-3" d="M94.84,113.49a15.76,15.76,0,0,1,15,1l-7.79-5.78Z"/><path class="cls-4" d="M112.19,98.35l7.24,6.53s-6-6.09-3-13.37Z"/></svg>